# xmcd CD Database Entry
#
# Track frame offsets:
# 150
# 15271
# 30873
# 45279
# 63518
# 84295
# 103599
# 122780
# 143224
# 162978
# 187220
# 205904
# 220678
# 235007
# 253163
# 267630
# 283014
# 303561
#
# Disc length: 4389 seconds
#
# Revision: 18
# Processed by: cddbd v1.4PL0 Copyright (c) Steve Scherf et al.
# Submitted via: tcd 2.0b
#
DISCID=fa112312
DTITLE=王菲/光之翼
DYEAR=1900
DGENRE=
TTITLE0=光之宝
TTITLE1=等等
TTITLE2=打错了
TTITLE3=有时爱情独有虚名
TTITLE4=流年
TTITLE5=夜会
TTITLE6=流浪的红舞鞋
TTITLE7=白痴
TTITLE8=两个人的圣经
TTITLE9=单行道
TTITLE10=迷魂记
TTITLE11=色盲
TTITLE12=不眠飞行
TTITLE13=心路
TTITLE14=女皇的新衣
TTITLE15=流浪的红舞鞋
TTITLE16=Seperate Ways (B)
TTITLE17=Eyes On Me看着我
EXTD=
EXTT0=
EXTT1=
EXTT2=
EXTT3=
EXTT4=
EXTT5=
EXTT6=
EXTT7=
EXTT8=
EXTT9=
EXTT10=
EXTT11=
EXTT12=
EXTT13=
EXTT14=
EXTT15=
EXTT16=
EXTT17=
PLAYORDER=
